<svg width="43" height="47" viewBox="0 0 43 47" fill="none" xmlns="http://www.w3.org/2000/svg">
  <path d="M35.7088 4.87744C36.8134 4.87744 37.7088 5.77287 37.7088 6.87744V30.4117C37.7088 31.122 37.3321 31.779 36.7191 32.1378L22.3022 40.5761C21.6782 40.9414 20.9056 40.9414 20.2816 40.5761L5.86472 32.1378C5.25172 31.779 4.875 31.122 4.875 30.4117V6.87744C4.875 5.77287 5.77043 4.87744 6.875 4.87744H35.7088Z" fill="#5E6673"/>
  <path d="M39.2041 0.5C40.5848 0.5 41.7041 1.61929 41.7041 3V32.8417C41.7041 33.7266 41.2363 34.5456 40.474 34.9951L22.372 45.6706C21.5884 46.1327 20.6157 46.1327 19.8321 45.6706L1.73004 34.9951C0.967808 34.5456 0.5 33.7266 0.5 32.8417V3C0.5 1.61929 1.61929 0.5 3 0.5H39.2041Z" stroke="#1E2026"/>
</svg>
