<svg width="78" height="48" viewBox="0 0 78 48" fill="none" xmlns="http://www.w3.org/2000/svg">
<circle cx="53.1355" cy="24.0001" r="21.3571" fill="#76808F" stroke="white" stroke-width="5"/>
<path d="M46.575 24L43.875 26.7188L41.1562 24L43.875 21.2812L46.575 24ZM53.1562 17.4187L57.8063 22.0688L60.525 19.35L55.875 14.7188L53.1562 12L50.4375 14.7188L45.8062 19.35L48.525 22.0688L53.1562 17.4187ZM62.4375 21.2812L59.7375 24L62.4562 26.7188L65.1562 24L62.4375 21.2812ZM53.1562 30.5812L48.5063 25.9313L45.8062 28.65L50.4562 33.3L53.1562 36L55.875 33.2812L60.525 28.6312L57.8063 25.9313L53.1562 30.5812ZM53.1562 26.7188L55.875 24L53.1562 21.2812L50.4375 24L53.1562 26.7188Z" fill="white"/>
<circle cx="53.1562" cy="24" r="23.5" stroke="#1E2026"/>
<circle cx="23.9793" cy="24.0001" r="21.3571" fill="#AEB4BC" stroke="white" stroke-width="5"/>
<path d="M32.5139 20.9975C32.8586 18.6571 31.0557 17.4089 28.5636 16.5508L29.3589 13.3782L27.397 12.8841L26.6016 15.9787C26.0714 15.8486 25.5411 15.7446 25.0374 15.6146L25.8328 12.4941L23.8708 12L23.0755 15.1725C22.6513 15.0685 22.2271 14.9905 21.8294 14.8865L19.1251 14.2104L18.5948 16.2647C18.5948 16.2647 20.053 16.6028 20.0265 16.6028C20.8219 16.8108 20.981 17.3049 20.9545 17.721L20.0265 21.3355C20.0795 21.3616 20.1591 21.3616 20.2386 21.3876C20.1856 21.3616 20.1061 21.3616 20.0265 21.3355L18.7274 26.4064C18.6213 26.6404 18.3828 27.0045 17.826 26.8745C17.8525 26.9005 16.3943 26.5364 16.3943 26.5364L15.4133 28.7468L17.9851 29.3709C18.4623 29.5009 18.9395 29.6049 19.3902 29.7349L18.5683 32.9335L20.5303 33.4276L21.3256 30.255C21.8559 30.4111 22.3861 30.5411 22.8899 30.6451L22.0945 33.7916L24.0564 34.2857L24.8783 31.0872C28.2454 31.7113 30.7641 31.4512 31.8246 28.4867C32.673 26.0943 31.7716 24.7161 30.0218 23.806C31.2944 23.5459 32.2488 22.7138 32.5139 20.9975ZM28.0068 27.1865C27.397 29.5789 23.2876 28.2787 21.9354 27.9667L23.0224 23.728C24.3746 24.04 28.6431 24.6901 28.0068 27.1865ZM28.6166 20.9715C28.0598 23.1559 24.6397 22.0377 23.5262 21.7776L24.5071 17.929C25.6207 18.189 29.1999 18.6831 28.6166 20.9715Z" fill="white"/>
<circle cx="24" cy="24" r="23.5" stroke="#1E2026"/>
</svg>
